<mxfile host="65bd71144e">
    <diagram id="eRNQCZAtLJyjHI4K__9k" name="Page-1">
        <mxGraphModel dx="1150" dy="907" grid="1" gridSize="10" guides="1" tooltips="1" connect="1" arrows="1" fold="1" page="1" pageScale="1" pageWidth="1700" pageHeight="1100" math="0" shadow="0">
            <root>
                <mxCell id="0"/>
                <mxCell id="1" parent="0"/>
                <mxCell id="2" value="&lt;b&gt;REG FILE&lt;/b&gt;" style="whiteSpace=wrap;html=1;aspect=fixed;" parent="1" vertex="1">
                    <mxGeometry x="990.0000000000001" y="260" width="180" height="180" as="geometry"/>
                </mxCell>
                <mxCell id="3" value="RS1" style="text;html=1;strokeColor=none;fillColor=none;align=center;verticalAlign=middle;whiteSpace=wrap;rounded=0;" parent="1" vertex="1">
                    <mxGeometry x="990.0000000000001" y="270" width="40" height="20" as="geometry"/>
                </mxCell>
                <mxCell id="4" value="RS2" style="text;html=1;strokeColor=none;fillColor=none;align=center;verticalAlign=middle;whiteSpace=wrap;rounded=0;" parent="1" vertex="1">
                    <mxGeometry x="990.0000000000001" y="310" width="40" height="20" as="geometry"/>
                </mxCell>
                <mxCell id="8" value="RD" style="text;html=1;strokeColor=none;fillColor=none;align=center;verticalAlign=middle;whiteSpace=wrap;rounded=0;" parent="1" vertex="1">
                    <mxGeometry x="990.0000000000001" y="380" width="40" height="20" as="geometry"/>
                </mxCell>
                <mxCell id="9" value="WB_DATA" style="text;html=1;strokeColor=none;fillColor=none;align=center;verticalAlign=middle;whiteSpace=wrap;rounded=0;" parent="1" vertex="1">
                    <mxGeometry x="1120" y="300" width="40" height="20" as="geometry"/>
                </mxCell>
                <mxCell id="10" value="WEN" style="text;html=1;strokeColor=none;fillColor=none;align=center;verticalAlign=middle;whiteSpace=wrap;rounded=0;" parent="1" vertex="1">
                    <mxGeometry x="1065" y="260" width="40" height="20" as="geometry"/>
                </mxCell>
                <mxCell id="109" style="edgeStyle=orthogonalEdgeStyle;rounded=0;orthogonalLoop=1;jettySize=auto;html=1;" edge="1" parent="1" source="12" target="88">
                    <mxGeometry relative="1" as="geometry"/>
                </mxCell>
                <mxCell id="12" value="SRC1" style="text;html=1;strokeColor=none;fillColor=none;align=center;verticalAlign=middle;whiteSpace=wrap;rounded=0;" parent="1" vertex="1">
                    <mxGeometry x="1025" y="420" width="40" height="20" as="geometry"/>
                </mxCell>
                <mxCell id="110" style="edgeStyle=orthogonalEdgeStyle;rounded=0;orthogonalLoop=1;jettySize=auto;html=1;" edge="1" parent="1" source="13" target="90">
                    <mxGeometry relative="1" as="geometry"/>
                </mxCell>
                <mxCell id="115" style="edgeStyle=orthogonalEdgeStyle;rounded=0;orthogonalLoop=1;jettySize=auto;html=1;entryX=0;entryY=0.5;entryDx=0;entryDy=0;" edge="1" parent="1" source="13" target="23">
                    <mxGeometry relative="1" as="geometry">
                        <Array as="points">
                            <mxPoint x="1110" y="460"/>
                            <mxPoint x="1240" y="460"/>
                            <mxPoint x="1240" y="370"/>
                        </Array>
                    </mxGeometry>
                </mxCell>
                <mxCell id="13" value="SRC2" style="text;html=1;strokeColor=none;fillColor=none;align=center;verticalAlign=middle;whiteSpace=wrap;rounded=0;" parent="1" vertex="1">
                    <mxGeometry x="1090" y="420" width="40" height="20" as="geometry"/>
                </mxCell>
                <mxCell id="19" value="" style="group" parent="1" connectable="0" vertex="1">
                    <mxGeometry x="1000.0000000000001" y="620" width="170" height="127.5" as="geometry"/>
                </mxCell>
                <mxCell id="11" value="" style="shape=step;perimeter=stepPerimeter;whiteSpace=wrap;html=1;fixedSize=1;rotation=90;" parent="19" vertex="1">
                    <mxGeometry x="21.25" y="-21.25" width="127.5" height="170" as="geometry"/>
                </mxCell>
                <mxCell id="14" value="&lt;b&gt;ALU&lt;/b&gt;" style="text;html=1;strokeColor=none;fillColor=none;align=center;verticalAlign=middle;whiteSpace=wrap;rounded=0;" parent="19" vertex="1">
                    <mxGeometry x="65" y="60" width="40" height="20" as="geometry"/>
                </mxCell>
                <mxCell id="15" value="in1" style="text;html=1;strokeColor=none;fillColor=none;align=center;verticalAlign=middle;whiteSpace=wrap;rounded=0;" parent="19" vertex="1">
                    <mxGeometry x="10" y="10" width="40" height="20" as="geometry"/>
                </mxCell>
                <mxCell id="16" value="in2" style="text;html=1;strokeColor=none;fillColor=none;align=center;verticalAlign=middle;whiteSpace=wrap;rounded=0;" parent="19" vertex="1">
                    <mxGeometry x="108.75" y="10" width="40" height="20" as="geometry"/>
                </mxCell>
                <mxCell id="17" value="alu_out" style="text;html=1;strokeColor=none;fillColor=none;align=center;verticalAlign=middle;whiteSpace=wrap;rounded=0;" parent="19" vertex="1">
                    <mxGeometry x="65" y="100" width="40" height="20" as="geometry"/>
                </mxCell>
                <mxCell id="18" value="alu_op" style="text;html=1;strokeColor=none;fillColor=none;align=center;verticalAlign=middle;whiteSpace=wrap;rounded=0;" parent="19" vertex="1">
                    <mxGeometry y="60" width="40" height="20" as="geometry"/>
                </mxCell>
                <mxCell id="62" style="edgeStyle=orthogonalEdgeStyle;rounded=0;orthogonalLoop=1;jettySize=auto;html=1;entryX=0.5;entryY=0;entryDx=0;entryDy=0;exitX=1;exitY=0.5;exitDx=0;exitDy=0;" parent="1" source="20" target="56" edge="1">
                    <mxGeometry relative="1" as="geometry">
                        <mxPoint x="756.25" y="600" as="targetPoint"/>
                        <Array as="points">
                            <mxPoint x="746" y="330"/>
                            <mxPoint x="746" y="770"/>
                            <mxPoint x="791" y="770"/>
                        </Array>
                    </mxGeometry>
                </mxCell>
                <mxCell id="20" value="&lt;b&gt;IMEM&lt;/b&gt;" style="rounded=0;whiteSpace=wrap;html=1;" parent="1" vertex="1">
                    <mxGeometry x="640" y="260" width="80" height="140" as="geometry"/>
                </mxCell>
                <mxCell id="35" value="" style="group" parent="1" vertex="1" connectable="0">
                    <mxGeometry x="1350" y="260" width="110" height="180" as="geometry"/>
                </mxCell>
                <mxCell id="21" value="&lt;b&gt;DMEM&lt;/b&gt;" style="rounded=0;whiteSpace=wrap;html=1;" parent="35" vertex="1">
                    <mxGeometry width="110" height="180" as="geometry"/>
                </mxCell>
                <mxCell id="22" value="IN_ADDR" style="text;html=1;strokeColor=none;fillColor=none;align=center;verticalAlign=middle;whiteSpace=wrap;rounded=0;" parent="35" vertex="1">
                    <mxGeometry x="10" y="130" width="40" height="20" as="geometry"/>
                </mxCell>
                <mxCell id="23" value="W_DATA" style="text;html=1;strokeColor=none;fillColor=none;align=left;verticalAlign=middle;whiteSpace=wrap;rounded=0;" parent="35" vertex="1">
                    <mxGeometry y="100" width="40" height="20" as="geometry"/>
                </mxCell>
                <mxCell id="24" value="R_DATA" style="text;html=1;strokeColor=none;fillColor=none;align=center;verticalAlign=middle;whiteSpace=wrap;rounded=0;" parent="35" vertex="1">
                    <mxGeometry x="70" y="30" width="40" height="20" as="geometry"/>
                </mxCell>
                <mxCell id="25" value="MRd" style="text;html=1;strokeColor=none;fillColor=none;align=center;verticalAlign=middle;whiteSpace=wrap;rounded=0;" parent="35" vertex="1">
                    <mxGeometry x="10" y="160" width="40" height="20" as="geometry"/>
                </mxCell>
                <mxCell id="26" value="MWrt" style="text;html=1;strokeColor=none;fillColor=none;align=center;verticalAlign=middle;whiteSpace=wrap;rounded=0;" parent="35" vertex="1">
                    <mxGeometry x="50" y="160" width="40" height="20" as="geometry"/>
                </mxCell>
                <mxCell id="40" value="" style="group" parent="1" connectable="0" vertex="1">
                    <mxGeometry x="271.46" y="510" width="133.75" height="133.75" as="geometry"/>
                </mxCell>
                <mxCell id="28" value="&lt;b&gt;BRANCH &lt;br&gt;LOGIC&lt;/b&gt;" style="whiteSpace=wrap;html=1;aspect=fixed;" parent="40" vertex="1">
                    <mxGeometry width="133.75" height="133.75" as="geometry"/>
                </mxCell>
                <mxCell id="30" value="SRC1" style="text;html=1;strokeColor=none;fillColor=none;align=center;verticalAlign=middle;whiteSpace=wrap;rounded=0;" parent="40" vertex="1">
                    <mxGeometry x="93.75" y="33.75" width="40" height="20" as="geometry"/>
                </mxCell>
                <mxCell id="31" value="SRC2" style="text;html=1;strokeColor=none;fillColor=none;align=center;verticalAlign=middle;whiteSpace=wrap;rounded=0;" parent="40" vertex="1">
                    <mxGeometry x="93.75" y="80" width="40" height="20" as="geometry"/>
                </mxCell>
                <mxCell id="32" value="BRANCH" style="text;html=1;strokeColor=none;fillColor=none;align=center;verticalAlign=middle;whiteSpace=wrap;rounded=0;" parent="40" vertex="1">
                    <mxGeometry x="80" width="40" height="20" as="geometry"/>
                </mxCell>
                <mxCell id="33" value="FUNC3" style="text;html=1;strokeColor=none;fillColor=none;align=center;verticalAlign=middle;whiteSpace=wrap;rounded=0;" parent="40" vertex="1">
                    <mxGeometry x="10" width="40" height="20" as="geometry"/>
                </mxCell>
                <mxCell id="34" value="BR_EN" style="text;html=1;strokeColor=none;fillColor=none;align=center;verticalAlign=middle;whiteSpace=wrap;rounded=0;rotation=90;" parent="40" vertex="1">
                    <mxGeometry x="-10" y="60" width="40" height="20" as="geometry"/>
                </mxCell>
                <mxCell id="41" value="" style="group" parent="1" connectable="0" vertex="1">
                    <mxGeometry x="776.25" y="650" width="120" height="80" as="geometry"/>
                </mxCell>
                <mxCell id="36" value="&lt;b&gt;IMMEDIATE&amp;nbsp;&lt;br&gt;EXTEND&lt;/b&gt;" style="rounded=0;whiteSpace=wrap;html=1;" parent="41" vertex="1">
                    <mxGeometry width="120" height="80" as="geometry"/>
                </mxCell>
                <mxCell id="37" value="INS" style="text;html=1;strokeColor=none;fillColor=none;align=center;verticalAlign=middle;whiteSpace=wrap;rounded=0;" parent="41" vertex="1">
                    <mxGeometry x="1.7763568394002505e-15" width="32.00000000000001" height="20" as="geometry"/>
                </mxCell>
                <mxCell id="38" value="TYPE" style="text;html=1;strokeColor=none;fillColor=none;align=center;verticalAlign=middle;whiteSpace=wrap;rounded=0;" parent="41" vertex="1">
                    <mxGeometry x="44.00000000000001" y="60" width="32.00000000000001" height="20" as="geometry"/>
                </mxCell>
                <mxCell id="39" value="IMM_EXT" style="text;html=1;strokeColor=none;fillColor=none;align=center;verticalAlign=middle;whiteSpace=wrap;rounded=0;" parent="41" vertex="1">
                    <mxGeometry x="76.00000000000001" width="32.00000000000001" height="20" as="geometry"/>
                </mxCell>
                <mxCell id="58" value="" style="group" parent="1" connectable="0" vertex="1">
                    <mxGeometry x="761.25" y="830" width="150" height="80" as="geometry"/>
                </mxCell>
                <mxCell id="49" value="&lt;b&gt;CONTROL&lt;/b&gt;" style="rounded=1;whiteSpace=wrap;html=1;" parent="58" vertex="1">
                    <mxGeometry x="10" width="140" height="80" as="geometry"/>
                </mxCell>
                <mxCell id="56" value="INS" style="text;html=1;strokeColor=none;fillColor=none;align=center;verticalAlign=middle;whiteSpace=wrap;rounded=0;" parent="58" vertex="1">
                    <mxGeometry x="10" width="40" height="20" as="geometry"/>
                </mxCell>
                <mxCell id="57" value="CTRL_SIG" style="text;html=1;strokeColor=none;fillColor=none;align=center;verticalAlign=middle;whiteSpace=wrap;rounded=0;rotation=-90;" parent="58" vertex="1">
                    <mxGeometry x="120" y="30" width="40" height="20" as="geometry"/>
                </mxCell>
                <mxCell id="63" style="edgeStyle=orthogonalEdgeStyle;rounded=0;orthogonalLoop=1;jettySize=auto;html=1;exitX=0.5;exitY=0;exitDx=0;exitDy=0;endArrow=none;endFill=0;startArrow=classic;startFill=1;" parent="1" source="37" edge="1">
                    <mxGeometry relative="1" as="geometry">
                        <mxPoint x="746.25" y="475" as="targetPoint"/>
                        <Array as="points">
                            <mxPoint x="792.25" y="475"/>
                        </Array>
                    </mxGeometry>
                </mxCell>
                <mxCell id="112" style="edgeStyle=orthogonalEdgeStyle;rounded=0;orthogonalLoop=1;jettySize=auto;html=1;entryX=0.5;entryY=0;entryDx=0;entryDy=0;" edge="1" parent="1" source="88" target="15">
                    <mxGeometry relative="1" as="geometry">
                        <mxPoint x="1030" y="620" as="targetPoint"/>
                    </mxGeometry>
                </mxCell>
                <mxCell id="88" value="&lt;b&gt;MUX1&lt;/b&gt;" style="shape=trapezoid;perimeter=trapezoidPerimeter;whiteSpace=wrap;html=1;fixedSize=1;rotation=0;size=15;flipV=1;" parent="1" vertex="1">
                    <mxGeometry x="985" y="530" width="80" height="30" as="geometry"/>
                </mxCell>
                <mxCell id="113" style="edgeStyle=orthogonalEdgeStyle;rounded=0;orthogonalLoop=1;jettySize=auto;html=1;" edge="1" parent="1" source="90">
                    <mxGeometry relative="1" as="geometry">
                        <mxPoint x="1130" y="630" as="targetPoint"/>
                    </mxGeometry>
                </mxCell>
                <mxCell id="90" value="&lt;b&gt;MUX2&lt;/b&gt;" style="shape=trapezoid;perimeter=trapezoidPerimeter;whiteSpace=wrap;html=1;fixedSize=1;rotation=0;flipV=1;" parent="1" vertex="1">
                    <mxGeometry x="1100" y="530" width="80" height="30" as="geometry"/>
                </mxCell>
                <mxCell id="123" style="edgeStyle=orthogonalEdgeStyle;rounded=0;orthogonalLoop=1;jettySize=auto;html=1;startArrow=classic;startFill=1;endArrow=none;endFill=0;exitX=0.439;exitY=0.994;exitDx=0;exitDy=0;exitPerimeter=0;" edge="1" parent="1" source="91">
                    <mxGeometry relative="1" as="geometry">
                        <mxPoint x="1300" y="790" as="targetPoint"/>
                        <Array as="points">
                            <mxPoint x="1510" y="410"/>
                            <mxPoint x="1510" y="790"/>
                        </Array>
                    </mxGeometry>
                </mxCell>
                <mxCell id="124" style="edgeStyle=orthogonalEdgeStyle;rounded=0;orthogonalLoop=1;jettySize=auto;html=1;startArrow=none;startFill=0;endArrow=classic;endFill=1;" edge="1" parent="1" source="91">
                    <mxGeometry relative="1" as="geometry">
                        <mxPoint x="1255" y="320" as="targetPoint"/>
                        <Array as="points">
                            <mxPoint x="1640" y="405"/>
                            <mxPoint x="1640" y="190"/>
                            <mxPoint x="1300" y="190"/>
                            <mxPoint x="1300" y="320"/>
                            <mxPoint x="1255" y="320"/>
                        </Array>
                    </mxGeometry>
                </mxCell>
                <mxCell id="91" value="&lt;b&gt;MUX3&lt;/b&gt;" style="shape=trapezoid;perimeter=trapezoidPerimeter;whiteSpace=wrap;html=1;fixedSize=1;rotation=-90;flipV=1;" parent="1" vertex="1">
                    <mxGeometry x="1530" y="390" width="80" height="30" as="geometry"/>
                </mxCell>
                <mxCell id="92" value="&lt;b&gt;MUX4&lt;/b&gt;" style="shape=trapezoid;perimeter=trapezoidPerimeter;whiteSpace=wrap;html=1;fixedSize=1;rotation=90;flipV=1;" parent="1" vertex="1">
                    <mxGeometry x="1200" y="290" width="80" height="30" as="geometry"/>
                </mxCell>
                <mxCell id="93" value="" style="shape=step;perimeter=stepPerimeter;whiteSpace=wrap;html=1;fixedSize=1;" parent="1" vertex="1">
                    <mxGeometry x="640" y="100" width="80" height="60" as="geometry"/>
                </mxCell>
                <mxCell id="101" style="edgeStyle=orthogonalEdgeStyle;rounded=0;orthogonalLoop=1;jettySize=auto;html=1;" parent="1" source="94" target="74" edge="1">
                    <mxGeometry relative="1" as="geometry">
                        <Array as="points">
                            <mxPoint x="150" y="740"/>
                            <mxPoint x="150" y="340"/>
                        </Array>
                    </mxGeometry>
                </mxCell>
                <mxCell id="94" value="&lt;b&gt;BRANCH/JUMP UNIT&lt;/b&gt;" style="rounded=0;whiteSpace=wrap;html=1;" parent="1" vertex="1">
                    <mxGeometry x="271.46" y="690" width="138.54" height="100" as="geometry"/>
                </mxCell>
                <mxCell id="103" style="edgeStyle=orthogonalEdgeStyle;rounded=0;orthogonalLoop=1;jettySize=auto;html=1;" parent="1" source="95" edge="1">
                    <mxGeometry relative="1" as="geometry">
                        <mxPoint x="240" y="300" as="targetPoint"/>
                        <Array as="points">
                            <mxPoint x="110" y="890"/>
                            <mxPoint x="110" y="300"/>
                        </Array>
                    </mxGeometry>
                </mxCell>
                <mxCell id="95" value="&lt;b&gt;JUMPR UNIT&lt;/b&gt;" style="rounded=0;whiteSpace=wrap;html=1;" parent="1" vertex="1">
                    <mxGeometry x="271.46" y="840" width="138.54" height="100" as="geometry"/>
                </mxCell>
                <mxCell id="126" style="edgeStyle=orthogonalEdgeStyle;rounded=0;orthogonalLoop=1;jettySize=auto;html=1;entryX=0;entryY=0.75;entryDx=0;entryDy=0;startArrow=none;startFill=0;endArrow=classic;endFill=1;" edge="1" parent="1" source="96" target="93">
                    <mxGeometry relative="1" as="geometry">
                        <Array as="points">
                            <mxPoint x="600" y="320"/>
                            <mxPoint x="600" y="140"/>
                        </Array>
                    </mxGeometry>
                </mxCell>
                <mxCell id="96" value="&lt;b&gt;PC&lt;/b&gt;" style="rounded=0;whiteSpace=wrap;html=1;rotation=-90;" parent="1" vertex="1">
                    <mxGeometry x="480" y="300" width="100" height="40" as="geometry"/>
                </mxCell>
                <mxCell id="97" style="edgeStyle=orthogonalEdgeStyle;rounded=0;orthogonalLoop=1;jettySize=auto;html=1;exitX=0.5;exitY=1;exitDx=0;exitDy=0;entryX=0.674;entryY=1.006;entryDx=0;entryDy=0;entryPerimeter=0;" parent="1" source="34" target="74" edge="1">
                    <mxGeometry relative="1" as="geometry">
                        <mxPoint x="380" y="420" as="targetPoint"/>
                        <Array as="points">
                            <mxPoint x="252" y="580"/>
                            <mxPoint x="252" y="450"/>
                            <mxPoint x="374" y="450"/>
                        </Array>
                    </mxGeometry>
                </mxCell>
                <mxCell id="102" value="" style="endArrow=classic;html=1;" parent="1" edge="1">
                    <mxGeometry width="50" height="50" relative="1" as="geometry">
                        <mxPoint x="150" y="379.76" as="sourcePoint"/>
                        <mxPoint x="240" y="379.76" as="targetPoint"/>
                    </mxGeometry>
                </mxCell>
                <mxCell id="73" value="" style="group" parent="1" connectable="0" vertex="1">
                    <mxGeometry x="280.00000000000006" y="230" width="149" height="180" as="geometry"/>
                </mxCell>
                <mxCell id="74" value="&lt;b&gt;PC&lt;br&gt;SELECT&lt;br&gt;&lt;/b&gt;" style="rounded=0;whiteSpace=wrap;html=1;" parent="73" vertex="1">
                    <mxGeometry x="-40" width="199" height="180" as="geometry"/>
                </mxCell>
                <mxCell id="79" value="&lt;span style=&quot;color: rgb(212, 212, 212); font-family: consolas, &amp;quot;courier new&amp;quot;, monospace; font-size: 14px; text-align: left;&quot;&gt;JUMP&lt;/span&gt;" style="text;html=1;strokeColor=none;fillColor=none;align=center;verticalAlign=middle;whiteSpace=wrap;rounded=0;rotation=-90;labelBackgroundColor=none;" parent="73" vertex="1">
                    <mxGeometry x="50.00153846153846" y="10" width="45.84615384615384" height="20" as="geometry"/>
                </mxCell>
                <mxCell id="78" value="&lt;span style=&quot;color: rgb(212, 212, 212); font-family: consolas, &amp;quot;courier new&amp;quot;, monospace; font-size: 14px; text-align: left;&quot;&gt;JUMPREG&lt;/span&gt;" style="text;html=1;strokeColor=none;fillColor=none;align=center;verticalAlign=middle;whiteSpace=wrap;rounded=0;rotation=-90;labelBackgroundColor=none;" parent="73" vertex="1">
                    <mxGeometry x="79.99538461538462" y="20" width="45.84615384615384" height="20" as="geometry"/>
                </mxCell>
                <mxCell id="86" value="&lt;font color=&quot;#d4d4d4&quot; face=&quot;consolas, courier new, monospace&quot;&gt;&lt;span style=&quot;font-size: 14px;&quot;&gt;NEXT&lt;br&gt;PC&lt;br&gt;&lt;/span&gt;&lt;/font&gt;" style="text;html=1;strokeColor=none;fillColor=none;align=center;verticalAlign=middle;whiteSpace=wrap;rounded=0;labelBackgroundColor=none;" parent="73" vertex="1">
                    <mxGeometry x="103.15384615384615" y="80" width="45.84615384615384" height="20" as="geometry"/>
                </mxCell>
                <mxCell id="82" value="&lt;span style=&quot;color: rgb(212, 212, 212); font-family: consolas, &amp;quot;courier new&amp;quot;, monospace; font-size: 14px; text-align: left;&quot;&gt;BRANCH&lt;/span&gt;" style="text;html=1;strokeColor=none;fillColor=none;align=center;verticalAlign=middle;whiteSpace=wrap;rounded=0;rotation=-90;labelBackgroundColor=none;" parent="73" vertex="1">
                    <mxGeometry x="68.76923076923076" y="140" width="45.84615384615384" height="20" as="geometry"/>
                </mxCell>
                <mxCell id="87" value="&lt;span style=&quot;color: rgb(212, 212, 212); font-family: consolas, &amp;quot;courier new&amp;quot;, monospace; font-size: 14px; text-align: left;&quot;&gt;JUMP TARGET&lt;/span&gt;" style="text;html=1;align=center;verticalAlign=middle;whiteSpace=wrap;rounded=0;labelBackgroundColor=none;" parent="73" vertex="1">
                    <mxGeometry x="-30.001538461538473" y="100" width="45.84615384615384" height="20" as="geometry"/>
                </mxCell>
                <mxCell id="84" value="&lt;span style=&quot;color: rgb(212, 212, 212); font-family: consolas, &amp;quot;courier new&amp;quot;, monospace; font-size: 14px; text-align: left;&quot;&gt;JUMPREG&lt;br&gt;TARGET&lt;/span&gt;" style="text;html=1;strokeColor=none;fillColor=none;align=center;verticalAlign=middle;whiteSpace=wrap;rounded=0;labelBackgroundColor=none;" parent="73" vertex="1">
                    <mxGeometry x="-30.00000000000003" y="60" width="45.84615384615384" height="20" as="geometry"/>
                </mxCell>
                <mxCell id="85" value="&lt;span style=&quot;color: rgb(212, 212, 212); font-family: consolas, &amp;quot;courier new&amp;quot;, monospace; font-size: 14px; text-align: left;&quot;&gt;BRANCH&lt;br&gt;TARGET&lt;/span&gt;" style="text;html=1;strokeColor=none;fillColor=none;align=center;verticalAlign=middle;whiteSpace=wrap;rounded=0;labelBackgroundColor=none;" parent="1" vertex="1">
                    <mxGeometry x="249.99923076923082" y="370" width="45.84615384615384" height="20" as="geometry"/>
                </mxCell>
                <mxCell id="80" value="&lt;span style=&quot;color: rgb(212, 212, 212); font-family: consolas, &amp;quot;courier new&amp;quot;, monospace; font-size: 14px;&quot;&gt;PC&lt;br&gt;PLUSFOUR&lt;/span&gt;" style="text;html=1;strokeColor=none;fillColor=none;align=center;verticalAlign=middle;whiteSpace=wrap;rounded=0;labelBackgroundColor=none;" parent="1" vertex="1">
                    <mxGeometry x="249.99615384615385" y="250" width="45.84615384615384" height="20" as="geometry"/>
                </mxCell>
                <mxCell id="108" style="edgeStyle=orthogonalEdgeStyle;rounded=0;orthogonalLoop=1;jettySize=auto;html=1;entryX=0.5;entryY=0;entryDx=0;entryDy=0;" parent="1" source="74" target="96" edge="1">
                    <mxGeometry relative="1" as="geometry"/>
                </mxCell>
                <mxCell id="114" style="edgeStyle=orthogonalEdgeStyle;rounded=0;orthogonalLoop=1;jettySize=auto;html=1;entryX=0;entryY=0.778;entryDx=0;entryDy=0;entryPerimeter=0;" edge="1" parent="1" source="11" target="21">
                    <mxGeometry relative="1" as="geometry">
                        <mxPoint x="1340" y="410" as="targetPoint"/>
                        <Array as="points">
                            <mxPoint x="1085" y="790"/>
                            <mxPoint x="1320" y="790"/>
                            <mxPoint x="1320" y="400"/>
                        </Array>
                    </mxGeometry>
                </mxCell>
                <mxCell id="116" style="edgeStyle=orthogonalEdgeStyle;rounded=0;orthogonalLoop=1;jettySize=auto;html=1;endArrow=none;endFill=0;startArrow=classic;startFill=1;" edge="1" parent="1" source="25">
                    <mxGeometry relative="1" as="geometry">
                        <mxPoint x="1380" y="500" as="targetPoint"/>
                    </mxGeometry>
                </mxCell>
                <mxCell id="117" style="edgeStyle=orthogonalEdgeStyle;rounded=0;orthogonalLoop=1;jettySize=auto;html=1;startArrow=classic;startFill=1;endArrow=none;endFill=0;" edge="1" parent="1" source="26">
                    <mxGeometry relative="1" as="geometry">
                        <mxPoint x="1420" y="500" as="targetPoint"/>
                    </mxGeometry>
                </mxCell>
                <mxCell id="119" style="edgeStyle=orthogonalEdgeStyle;rounded=0;orthogonalLoop=1;jettySize=auto;html=1;startArrow=none;startFill=0;endArrow=classic;endFill=1;" edge="1" parent="1" source="24">
                    <mxGeometry relative="1" as="geometry">
                        <mxPoint x="1555" y="390" as="targetPoint"/>
                        <Array as="points">
                            <mxPoint x="1508" y="300"/>
                            <mxPoint x="1508" y="390"/>
                            <mxPoint x="1555" y="390"/>
                        </Array>
                    </mxGeometry>
                </mxCell>
                <mxCell id="122" style="edgeStyle=orthogonalEdgeStyle;rounded=0;orthogonalLoop=1;jettySize=auto;html=1;entryX=0.25;entryY=0;entryDx=0;entryDy=0;startArrow=none;startFill=0;endArrow=classic;endFill=1;" edge="1" parent="1" source="39" target="90">
                    <mxGeometry relative="1" as="geometry">
                        <Array as="points">
                            <mxPoint x="868" y="500"/>
                            <mxPoint x="1120" y="500"/>
                        </Array>
                    </mxGeometry>
                </mxCell>
                <mxCell id="127" style="edgeStyle=orthogonalEdgeStyle;rounded=0;orthogonalLoop=1;jettySize=auto;html=1;startArrow=classic;startFill=1;endArrow=none;endFill=0;" edge="1" parent="1" source="38">
                    <mxGeometry relative="1" as="geometry">
                        <mxPoint x="836.2500000000002" y="790" as="targetPoint"/>
                    </mxGeometry>
                </mxCell>
            </root>
        </mxGraphModel>
    </diagram>
</mxfile>